<svg version="1" xmlns="http://www.w3.org/2000/svg" width="933.333" height="933.333" viewBox="0 0 700.000000 700.000000"><path d="M330.5.6c-2.2.2-9.2.9-15.5 1.5-56.7 5.2-114.7 26.2-162 58.7-25 17.2-57 46.6-74.6 68.7C50.9 163.9 31.1 200.1 18 240c-23.7 71.7-23.7 148.3 0 220 40.3 122.5 147 213.9 274 234.9 22.7 3.8 32.2 4.5 58 4.5 25.8 0 35.3-.7 58-4.5 98.3-16.2 185.5-74.7 239.2-160.4 23.2-36.9 40.5-82.7 47.7-126 3.6-21.5 4.5-33.6 4.5-58.5s-.9-37.1-4.5-58.5c-9.9-59.1-34.4-113.3-73.3-162-10-12.6-39.1-41.7-51.6-51.7-53.3-42.5-113.2-67.5-180.5-75.4-11.8-1.4-51.2-2.6-59-1.8zM218.4 238.5c16.7 3.5 23.3 12.5 25.1 33.7l.7 8.7 6.7.6c30 2.8 51.3 11.6 87.7 36.2 45.5 30.8 60.1 39.2 79.4 45.6 11.7 3.9 26.4 6.7 35 6.7h5.6l1.1-10.9c1.4-13.4 4-19.8 9.9-25 8.1-7.1 10.3-7.4 51.4-7.9 46.6-.5 53.9.5 62.3 8.6 2 2 4.7 6.1 5.9 9.2 2.2 5.3 2.3 6.8 2.6 47 .3 44.5-.1 50.8-4.4 59.7-3 6.2-7.6 9.9-15.8 12.6-5.5 1.8-9.4 2.1-38.8 2.5-35.8.4-47-.4-55.3-4.2-10.8-4.9-15.9-13.6-17.7-30.2l-1.2-10.4h-5.7c-6.2 0-20.8-2.3-27.9-4.4-20.7-6.2-34.5-13.6-74-40-17.3-11.6-36.9-23.9-43.6-27.3-19-9.8-38.8-15.6-56.5-16.5l-6.5-.4-1.2 10.4c-1.8 16.5-6.4 24.5-16.6 29.3-9.4 4.4-18.2 5.1-55.3 4.6-35.4-.5-39.6-1-47.3-6.1-11.7-7.7-13.9-17.8-13.9-63.6 0-40.3 1.5-50.6 8.5-58.9 4.3-5 9.5-7.8 17.8-9.6 9.1-2 72.6-2 82 0z"/></svg>